<svg width="24" height="24" viewBox="0 0 24 24" fill="none" xmlns="http://www.w3.org/2000/svg">
<g id="Group">
<path id="Path" d="M5.99747 13.1535C4.1597 13.9778 2.99622 15.1703 2.99622 16.5019C2.99622 18.9879 7.02689 21.0038 12 21.0038C16.973 21.0038 21.0037 18.9879 21.0037 16.5019C21.0037 15.1703 19.8402 13.9778 18.0025 13.1535" stroke="#155EEF" stroke-width="1.5" stroke-linecap="round" stroke-linejoin="round"/>
<path id="Path_2" d="M15.6535 17.0021C14.5694 17.7075 13.2923 18.0572 12 18.0025C10.7078 18.0572 9.43061 17.7075 8.3465 17.0021" stroke="#155EEF" stroke-width="1.5" stroke-linecap="round" stroke-linejoin="round"/>
<path id="Path_3" d="M14.2009 3.90963C15.0928 4.80145 15.3596 6.14269 14.877 7.30794C14.3943 8.47319 13.2573 9.23295 11.996 9.23295C10.7348 9.23295 9.59771 8.47319 9.11507 7.30794C8.63242 6.14269 8.89924 4.80145 9.7911 3.90963C10.3758 3.32462 11.1689 2.99594 11.996 2.99594C12.8231 2.99594 13.6163 3.32462 14.2009 3.90963" stroke="#155EEF" stroke-width="1.5" stroke-linecap="round" stroke-linejoin="round"/>
<path id="Path_4" d="M12 9.23085V15.0012" stroke="#155EEF" stroke-width="1.5" stroke-linecap="round" stroke-linejoin="round"/>
</g>
</svg>
